<svg id="Capa_1" data-name="Capa 1" xmlns="http://www.w3.org/2000/svg" viewBox="0 0 89.12 31.08"><defs><style>.cls-1{fill:#fff;}</style></defs><path class="cls-1" d="M40.53,4.83A13.13,13.13,0,1,0,53.66,18,13.14,13.14,0,0,0,40.53,4.83Zm0,19.09a6,6,0,1,1,6-6A6,6,0,0,1,40.53,23.92Z"/><path class="cls-1" d="M13.52,4.83A13,13,0,0,0,7.16,6.49V0H0V30.87H7.16V29.43a13.12,13.12,0,1,0,6.36-24.6Zm0,19.09a6,6,0,1,1,6-6A6,6,0,0,1,13.52,23.92Z"/><path class="cls-1" d="M82,0V6.31a13,13,0,0,0-6-1.48,13.13,13.13,0,0,0,0,26.25,13,13,0,0,0,6-1.47v1.26h7.16V0Zm-6,23.92a6,6,0,1,1,6-6A6,6,0,0,1,75.93,23.92Z"/><polygon class="cls-1" points="54.74 0 54.74 30.87 61.9 30.87 61.9 3 58.9 0 54.74 0"/></svg>