<svg id="Capa_1" data-name="Capa 1" xmlns="http://www.w3.org/2000/svg" viewBox="0 0 15.62 15.62"><defs><style>.cls-1{fill:#fff;}</style></defs><path class="cls-1" d="M7.81,1.41c2.08,0,2.33,0,3.15,0a4.35,4.35,0,0,1,1.45.27,2.28,2.28,0,0,1,.9.59,2.41,2.41,0,0,1,.58.89,4.15,4.15,0,0,1,.27,1.45c0,.83.05,1.07.05,3.16s0,2.33-.05,3.15a4.1,4.1,0,0,1-.27,1.45,2.53,2.53,0,0,1-1.48,1.48,4.1,4.1,0,0,1-1.45.27c-.82,0-1.07.05-3.15.05s-2.33,0-3.16-.05a4.15,4.15,0,0,1-1.45-.27,2.41,2.41,0,0,1-.89-.58,2.28,2.28,0,0,1-.59-.9A4.35,4.35,0,0,1,1.45,11c0-.82,0-1.07,0-3.15s0-2.33,0-3.16A4.41,4.41,0,0,1,1.72,3.2a2.32,2.32,0,0,1,.59-.89,2.32,2.32,0,0,1,.89-.59,4.41,4.41,0,0,1,1.45-.27c.83,0,1.07,0,3.16,0M7.81,0C5.69,0,5.42,0,4.59.05a5.67,5.67,0,0,0-1.9.36A4,4,0,0,0,.41,2.69a5.67,5.67,0,0,0-.36,1.9c0,.83,0,1.1,0,3.22S0,10.19.05,11a5.55,5.55,0,0,0,.36,1.89,3.79,3.79,0,0,0,.9,1.38,3.77,3.77,0,0,0,1.38.91,5.93,5.93,0,0,0,1.9.36c.83,0,1.1,0,3.22,0s2.38,0,3.22,0a5.81,5.81,0,0,0,1.89-.36,3.69,3.69,0,0,0,1.38-.91,3.69,3.69,0,0,0,.91-1.38A5.81,5.81,0,0,0,15.57,11c0-.84,0-1.1,0-3.22s0-2.39,0-3.22a5.93,5.93,0,0,0-.36-1.9,3.77,3.77,0,0,0-.91-1.38,3.79,3.79,0,0,0-1.38-.9A5.55,5.55,0,0,0,11,.05c-.84,0-1.1,0-3.22,0Z"/><path class="cls-1" d="M7.81,3.8a4,4,0,1,0,4,4A4,4,0,0,0,7.81,3.8Zm0,6.61a2.6,2.6,0,1,1,2.6-2.6A2.59,2.59,0,0,1,7.81,10.41Z"/><circle class="cls-1" cx="11.98" cy="3.64" r="0.94"/></svg>