<svg id="Capa_1" data-name="Capa 1" xmlns="http://www.w3.org/2000/svg" viewBox="0 0 15.66 10.96"><defs><style>.cls-1{fill:#fff;}</style></defs><path class="cls-1" d="M15.34,1.71A2,2,0,0,0,14,.33,46.42,46.42,0,0,0,7.83,0,46.42,46.42,0,0,0,1.71.33,2,2,0,0,0,.33,1.71,20.21,20.21,0,0,0,0,5.48,20.21,20.21,0,0,0,.33,9.25a2,2,0,0,0,1.38,1.39A47.86,47.86,0,0,0,7.83,11,47.86,47.86,0,0,0,14,10.64a2,2,0,0,0,1.39-1.39,20.83,20.83,0,0,0,.32-3.77A20.83,20.83,0,0,0,15.34,1.71ZM6.27,7.83V3.13l4.06,2.35Z"/></svg>